<svg width="33" height="33" viewBox="0 0 33 33" fill="none" xmlns="http://www.w3.org/2000/svg">
<path d="M29.3245 0.146423H4.12373C2.22651 0.146423 0.687256 1.68977 0.687256 3.59205V28.8599C0.687256 30.7622 2.22651 32.3056 4.12373 32.3056H29.3245C31.2217 32.3056 32.761 30.7622 32.761 28.8599V3.59205C32.761 1.68977 31.2217 0.146423 29.3245 0.146423ZM20.54 27.6899C19.9387 27.7975 19.7167 27.4243 19.7167 27.1156C19.7167 26.728 19.731 24.7467 19.731 23.146C19.731 22.0261 19.3588 21.3155 18.922 20.9422C21.571 20.6479 24.3631 20.2818 24.3631 15.6948C24.3631 14.3883 23.8978 13.7351 23.1389 12.8952C23.2606 12.5866 23.6687 11.316 23.0172 9.66496C22.022 9.35629 19.7454 10.9499 19.7454 10.9499C18.8003 10.6843 17.7765 10.5479 16.7671 10.5479C15.7576 10.5479 14.7338 10.6843 13.7888 10.9499C13.7888 10.9499 11.5121 9.35629 10.517 9.66496C9.8655 11.3088 10.2664 12.5794 10.3953 12.8952C9.6364 13.7351 9.27844 14.3883 9.27844 15.6948C9.27844 20.2602 11.9489 20.6479 14.5978 20.9422C14.2542 21.2509 13.9463 21.7821 13.8389 22.543C13.1588 22.8516 11.4191 23.3828 10.381 21.5452C9.72947 20.411 8.55535 20.3177 8.55535 20.3177C7.39554 20.3033 8.47659 21.0499 8.47659 21.0499C9.2498 21.4088 9.79391 22.787 9.79391 22.787C10.4884 24.919 13.8103 24.2012 13.8103 24.2012C13.8103 25.199 13.8246 26.8213 13.8246 27.1156C13.8246 27.4243 13.6098 27.7975 13.0013 27.6899C8.27613 26.1034 4.96853 21.5954 4.96853 16.3265C4.96853 9.73674 9.99437 4.73341 16.5666 4.73341C23.1389 4.73341 28.4654 9.73674 28.4654 16.3265C28.4726 21.5954 25.2652 26.1106 20.54 27.6899ZM13.5168 23.3039C13.3807 23.3326 13.2519 23.2752 13.2375 23.1818C13.2232 23.0742 13.3163 22.9809 13.4523 22.9521C13.5883 22.9378 13.7172 22.9952 13.7315 23.0885C13.753 23.1818 13.6599 23.2752 13.5168 23.3039ZM12.8366 23.2393C12.8366 23.3326 12.7292 23.4116 12.586 23.4116C12.4285 23.4259 12.3211 23.3469 12.3211 23.2393C12.3211 23.146 12.4285 23.067 12.5717 23.067C12.7078 23.0526 12.8366 23.1316 12.8366 23.2393ZM11.8558 23.1603C11.8272 23.2536 11.684 23.2967 11.5623 23.2536C11.4262 23.2249 11.3332 23.1172 11.3618 23.0239C11.3904 22.9306 11.5336 22.8875 11.6553 22.9162C11.7985 22.9593 11.8916 23.067 11.8558 23.1603ZM10.9752 22.7727C10.9108 22.8516 10.7747 22.8373 10.6673 22.7296C10.56 22.6363 10.5313 22.4999 10.6029 22.4353C10.6673 22.3563 10.8034 22.3707 10.9108 22.4784C11.0038 22.5717 11.0396 22.7153 10.9752 22.7727ZM10.3237 22.1194C10.2593 22.1625 10.1376 22.1194 10.0588 22.0118C9.98005 21.9041 9.98005 21.7821 10.0588 21.7318C10.1376 21.6672 10.2593 21.7175 10.3237 21.8251C10.4025 21.9328 10.4025 22.062 10.3237 22.1194ZM9.85834 21.4231C9.79391 21.4877 9.68652 21.4519 9.60777 21.3801C9.52901 21.2868 9.5147 21.1791 9.57913 21.1288C9.64356 21.0642 9.75095 21.1001 9.82971 21.1719C9.90846 21.2652 9.92278 21.3729 9.85834 21.4231ZM9.37867 20.8919C9.35003 20.9565 9.25696 20.9709 9.17821 20.9207C9.08514 20.8776 9.04218 20.7986 9.07082 20.734C9.09945 20.6909 9.17821 20.6694 9.27128 20.7053C9.36435 20.7556 9.40731 20.8345 9.37867 20.8919Z" fill="white"/>
</svg>
