<svg width="240" height="240" viewBox="0 0 240 240" fill="none" xmlns="http://www.w3.org/2000/svg">
<path d="M0.75 239.25V0.75H239.25V239.25H0.75Z" fill="#FFBD2E"/>
<path d="M156.683 179.276C161.277 186.716 166.259 193.858 176.804 193.858C185.668 193.858 190.326 189.446 190.326 183.352C190.326 176.067 185.512 173.466 175.756 169.222L170.412 166.944C154.988 160.397 144.727 152.193 144.727 134.867C144.727 118.913 156.942 106.763 176.054 106.763C189.653 106.763 199.422 111.473 206.474 123.804L189.808 134.453C186.146 127.906 182.187 125.331 176.054 125.331C169.778 125.331 165.806 129.278 165.806 134.453C165.806 140.833 169.791 143.42 178.965 147.38L184.309 149.657C202.489 157.395 212.75 165.314 212.75 183.093C212.75 202.243 197.624 212.75 177.309 212.75C157.434 212.75 146.151 202.774 139.875 190.442L156.683 179.276ZM79.9265 179.819C83.2778 185.823 88.376 190.442 95.6997 190.442C102.713 190.442 106.75 187.673 106.75 176.908V106.75H128.825V180.298C128.825 202.605 115.898 212.75 96.9937 212.75C79.9265 212.75 67.6082 201.182 62.5747 190.442L79.9265 179.819Z" fill="#000100" fill-opacity="0.85098"/>
</svg>
