<svg width="318" height="246" viewBox="0 0 318 246" fill="none" xmlns="http://www.w3.org/2000/svg">
<path d="M145.336 0.905396C131.163 0.905396 116.207 3.56368 102.071 8.58211C85.1395 14.5943 53.1284 28.072 28.9554 50.6799C4.40977 73.6355 -1.63969 95.7216 0.869534 108.752C5.57742 133.161 29.0423 149.869 46.8802 162.166C33.8496 170.141 19.7011 181.122 14.0367 193.656C8.68289 205.469 8.39719 217.642 13.2045 227.928C16.7944 235.604 22.9184 241.294 29.5889 243.157C34.2098 244.436 38.9798 245.095 43.7747 245.095C62.718 245.095 81.4006 234.76 92.5554 218.127C94.2323 215.63 95.6733 213.046 96.9031 210.388C97.5863 211.195 98.2943 211.965 99.0148 212.649C105.101 218.412 112.356 218.412 114.741 218.412C122.095 218.412 127.262 215.22 131.001 211.27C134.119 213.344 137.783 214.45 141.734 214.45C142.206 214.45 142.702 214.45 143.175 214.388C151.075 213.419 159.609 205.705 159.609 205.705C159.944 205.991 160.267 206.251 160.627 206.525C163.981 209.059 168.205 210.289 173.534 210.289C174.416 210.289 175.335 210.264 176.254 210.202C182.763 209.767 187.67 208.202 190.75 206.91C193.856 205.779 198.352 203.779 202.837 200.475C203.93 199.668 204.961 198.836 205.93 197.941C207.905 199.146 210.141 200.016 212.563 200.5C213.743 200.736 214.985 200.86 216.252 200.86C219.594 200.86 223.221 200.04 227.308 198.364C230.625 197.221 235.419 195.171 240.202 191.656C251.282 183.507 256.673 173.83 256.214 162.899C256.201 162.564 256.176 162.228 256.151 161.88C257.791 161.707 259.481 161.62 261.22 161.62C263.381 161.62 265.654 161.756 267.965 162.03C283.132 163.806 286.399 170.961 286.337 173.333C286.237 173.955 285.157 174.961 284.15 175.582C277.728 179.544 275.058 184.699 276.2 190.898C277.418 197.606 283.045 202.301 289.889 202.301C291.194 202.301 292.336 202.14 293.28 201.978C301.417 200.599 316.919 190.513 317.627 172.365C318.05 161.831 313.727 151.061 305.802 142.8C295.839 132.428 281.219 126.727 264.648 126.727H264.263C257.419 126.764 250.773 127.708 244.388 129.521L244.189 128.081C243.804 125.348 243.655 124.329 243.966 121.957C244.251 119.82 245.543 115.969 246.177 114.118C247.059 111.522 247.705 109.646 247.481 106.876C247.046 101.46 242.55 92.2683 228.451 92.1689H228.053C215.52 92.1689 207.781 95.8085 205.048 102.988C204.7 103.883 204.303 105.063 203.88 106.429C200.949 103.349 196.253 100.926 189.049 100.877H188.639C187.148 100.877 185.719 100.939 184.365 101.038C202.439 84.2934 213.967 60.2447 208.091 37.2021C202.39 14.8179 178.341 0.905396 145.336 0.905396ZM145.324 13.5633C170.701 13.5633 191.434 23.0536 195.843 40.3448C202.29 65.6358 180.328 95.8706 152.218 106.752C137.61 112.404 124.467 114.243 114.356 114.243C107.101 114.243 101.4 113.286 97.8347 112.118C88.1456 108.938 82.4564 102.554 81.0652 98.9513C80.5186 97.5352 79.587 95.1626 81.0652 94.3427C81.3136 94.2061 81.5372 94.1067 81.7608 94.1067C82.3446 94.1067 83.0278 94.703 84.7793 96.6408C86.8041 98.8767 94.2075 104.417 107.909 104.417C109.834 104.417 111.896 104.318 114.082 104.069C160.478 98.8643 188.427 62.816 179.595 43.4131C176.353 36.2953 164.975 31.2272 148.429 31.2272C133.436 31.2272 114.207 35.4009 92.9653 45.9844C38.4209 73.1634 35.4645 95.5601 35.0048 104.069C33.7254 127.472 63.8857 139.794 80.208 157.21C80.4192 157.433 80.6304 157.669 80.8416 157.893C83.8973 156.204 87.127 154.44 90.2822 152.701C98.5179 148.179 106.257 143.943 109.884 141.968C115.623 133.621 127.299 124.416 135.709 124.416C149.162 124.416 144.529 143.745 144.529 143.745C144.529 143.745 144.802 142.85 145.174 142.838C145.473 142.825 146.417 141.335 148.727 141.335C149.423 141.335 150.23 141.471 151.187 141.819C155.46 143.384 154.491 146.378 154.516 146.689C154.565 147.285 149.472 164.464 147.348 175.482C146.342 180.737 146.926 184.563 147.224 184.563C147.646 184.563 148.491 183.221 149.286 181.78L149.274 181.743C149.274 181.743 149.87 180.662 150.864 178.712C150.988 178.451 151.062 178.29 151.062 178.29L151.075 178.302C152.242 176.004 153.895 172.625 155.795 168.439C159.534 160.204 173.782 128.453 174.987 124.938C176.192 121.422 176.825 117.783 177.422 116.23C178.005 114.702 182.875 113.547 188.626 113.547H188.937C194.825 113.597 195.409 116.093 195.458 116.615C195.508 117.137 192.651 124.106 192.005 129.025C191.359 133.944 191.98 136.416 192.514 140.552C192.874 143.26 194.564 146.689 196.551 150.577C202.638 140.614 213.371 121.571 214.402 116.23C215.11 112.59 216.24 109.088 216.836 107.535C217.42 106.007 222.289 104.839 228.041 104.839H228.339C234.227 104.889 234.823 107.398 234.873 107.92C234.923 108.442 232.065 115.41 231.42 120.329C230.774 125.248 231.395 127.708 231.929 131.844C232.388 135.385 235.134 140.155 237.842 145.558C245.245 141.906 254.089 139.447 264.3 139.397H264.623C290.821 139.397 305.591 156.402 304.982 171.893C304.522 184.116 293.28 189.159 291.194 189.519C290.684 189.606 290.25 189.668 289.889 189.668C289.181 189.668 288.784 189.407 288.635 188.625C288.486 187.805 289.032 187.432 290.809 186.327C292.585 185.221 297.914 181.582 298.858 174.936C299.814 168.29 294.821 152.44 269.43 149.471C266.549 149.136 263.816 148.987 261.22 148.987C253.183 148.987 246.549 150.49 241.121 152.75C242.463 156.204 243.444 159.794 243.593 163.421C243.928 171.383 238.425 177.271 232.711 181.47C229.382 183.917 225.817 185.557 222.848 186.538C220.861 187.383 218.339 188.227 216.252 188.227C215.83 188.227 215.433 188.19 215.06 188.115C210.104 187.122 207.47 182.724 210.836 173.023C212.663 167.781 217.917 159.781 226.376 152.899C224.438 148.924 222.289 144.875 221.196 141.161C219.035 133.832 218.377 129.397 218.377 129.397C218.377 129.397 211.383 143.869 202.377 157.036C201.855 157.794 201.334 158.539 200.824 159.284C202.588 163.384 203.992 167.744 204.178 172.129C204.514 180.091 201.06 186.103 195.346 190.302C192.253 192.575 188.949 194.153 186.117 195.159C184.303 195.941 180.614 197.233 175.384 197.593C174.751 197.643 174.13 197.668 173.521 197.668C171.36 197.668 169.422 197.357 168.217 196.451C166.105 194.861 165.844 192.873 166.938 190.178C167.869 187.892 174.801 179.967 180.626 173.023C182.229 171.11 183.769 169.16 185.136 167.346C185.111 167.296 185.111 167.272 185.111 167.272C185.111 167.272 186.167 165.905 187.881 163.533C185.757 158.961 183.049 154.179 181.782 149.869C179.62 142.54 178.974 138.093 178.974 138.093C178.974 138.093 171.894 156.241 164.515 170.725C158.801 181.942 154.988 188.737 153.274 191.718C153.261 191.792 153.249 191.83 153.249 191.83C153.249 191.83 153 192.264 152.553 192.948C152.342 193.32 152.23 193.507 152.23 193.507C152.23 193.507 152.23 193.482 152.218 193.457C150.305 196.277 146.007 201.817 141.734 201.817C130.007 201.817 134.318 178.016 134.318 178.016C134.318 178.016 130.889 186.836 127.026 194.401C123.883 200.575 121.014 205.792 114.741 205.792C112.927 205.792 110.07 205.73 107.698 203.481C102.307 198.364 98.1949 185.383 99.0023 175.333C99.6856 166.775 101.002 160.862 102.803 155.918C99.5737 157.669 95.872 159.744 92.0834 161.967C90.1456 163.11 88.1953 164.265 86.2699 165.396C86.332 165.508 86.3941 165.632 86.4563 165.744C91.2759 175.06 92.543 195.432 82.0465 211.096C73.5251 223.791 59.0784 232.474 43.7623 232.474C40.1848 232.474 36.57 232.002 32.9677 230.996C26.8188 229.282 17.5273 216.574 25.5394 198.873C32.595 183.271 60.8175 168.489 68.2582 164.812C68.8793 164.464 69.5749 164.092 70.3078 163.694C55.4885 150.726 18.4465 133.236 13.2541 106.367C11.7884 98.8022 15.341 80.7035 37.5638 59.9093C56.2587 42.4317 82.2701 29.0409 106.282 20.5071C119.498 15.8116 132.964 13.5633 145.324 13.5633ZM148.454 43.8354C162.006 43.8354 167.521 47.7731 168.167 48.742C169.062 50.7171 168.851 55.1145 165.422 61.1763C158.068 74.1448 138.901 88.5541 112.691 91.4981C111.052 91.6845 109.462 91.7714 107.934 91.7714C98.1328 91.7714 94.0584 88.0324 94.0212 87.9952C91.748 85.4735 88.0959 81.4613 81.7856 81.4488C79.4379 81.4488 77.1398 82.0699 74.966 83.2748C73.1152 84.2934 64.1466 90.082 69.2644 103.398C72.0469 110.628 80.7298 119.795 93.9094 124.118C97.4372 125.273 101.748 126.081 106.493 126.515C104.567 128.428 102.866 130.354 101.425 132.18C97.3254 134.416 90.9281 137.919 84.2203 141.608L82.9533 142.291C78.8541 138.676 74.4816 135.323 70.196 132.031C56.2587 121.311 47.1534 113.609 47.6379 104.74C48.6565 85.9952 75.9225 68.5674 98.6173 57.2634C115.995 48.6054 133.697 43.8354 148.454 43.8354ZM164.64 114.975C164.528 115.385 164.441 115.82 164.329 116.255C163.969 117.721 163.559 119.36 163.062 120.801C162.64 121.944 160.876 126.019 158.553 131.31C158.193 131.111 157.832 130.913 157.46 130.739C156.826 127.037 155.485 123.236 152.975 119.932C154.23 119.485 155.497 119.013 156.789 118.516C159.435 117.497 162.056 116.317 164.64 114.975ZM135.423 135.832C133.237 135.832 129.684 137.745 126.38 141.434C123.536 144.626 118.679 152.85 116.405 159.731C111.884 173.408 113.834 187.296 117.039 188.14C117.138 188.165 117.238 188.178 117.337 188.178C121.088 188.178 126.989 170.65 129.833 163.694C131.672 159.222 138.814 139.36 137.249 136.701C136.901 136.118 136.268 135.832 135.423 135.832ZM230.426 158.353C225.681 162.539 222.948 166.936 221.755 169.545C218.712 176.19 218.563 178.315 219.482 178.973C223.917 177.383 231.233 173.545 231.295 163.272C231.308 161.731 230.985 160.079 230.426 158.353ZM77.2641 169.669C76.8045 169.942 76.3821 170.203 75.9598 170.452V170.464C75.9598 170.464 75.761 170.576 75.4008 170.787C73.2145 172.091 71.4009 173.184 70.1836 173.917C64.7925 177.284 56.6686 182.749 50.3831 188.687C40.0605 198.426 37.8991 211.941 43.3399 215.096C44.5076 215.767 46.0355 216.102 47.7994 216.102C53.6501 216.102 62.0721 212.425 68.5439 205.369C77.3759 195.73 81.0155 183.532 77.2641 169.669ZM191.868 171.259C190.042 173.669 188.353 175.805 186.9 177.607C184.403 180.712 178.068 187.519 178.068 187.519C178.068 187.519 177.173 188.376 177.558 188.6C177.682 188.674 177.844 188.712 178.03 188.712C178.639 188.712 179.521 188.351 180.477 187.855C183.993 185.644 191.868 180.128 191.893 171.967C191.893 171.731 191.893 171.495 191.868 171.259Z" fill="#FF5F56"/>
</svg>
