<svg width="32" height="32" viewBox="0 0 32 32" fill="none" xmlns="http://www.w3.org/2000/svg">
<path d="M16 0C24.8358 0 32 7.16422 32 16C32 24.8358 24.8358 32 16 32C7.16422 32 0 24.8358 0 16C0 7.16422 7.16422 0 16 0ZM21.5196 22.5221C21.8137 21.6201 23.1936 12.6201 23.3627 10.848C23.4142 10.3088 23.2426 9.95343 22.9118 9.79412C22.5098 9.60049 21.9142 9.69608 21.223 9.94608C20.277 10.2892 8.16422 15.4314 7.46324 15.7279C6.80147 16.0123 6.17157 16.3186 6.17157 16.7647C6.17157 17.0784 6.35784 17.2525 6.8701 17.4363C7.40441 17.6275 8.7451 18.0319 9.53677 18.2525C10.3015 18.4632 11.1691 18.2794 11.6569 17.9755C12.1716 17.6544 18.1299 13.6691 18.5564 13.3211C18.9853 12.9706 19.326 13.4191 18.9755 13.7696C18.6275 14.1176 14.5392 18.0858 13.9975 18.6373C13.3431 19.3039 13.8088 19.9951 14.2475 20.2721C14.75 20.5882 18.3554 23.0074 18.8995 23.3946C19.4436 23.7843 19.9926 23.9583 20.5 23.9583C21.0025 23.9583 21.2672 23.2941 21.5196 22.5221Z" fill="white"/>
</svg>
