<svg width="238" height="238" viewBox="0 0 238 238" fill="none" xmlns="http://www.w3.org/2000/svg">
<path d="M0 26.4444V211.556C0 226.166 11.8339 238 26.4444 238H211.556C226.166 238 238 226.166 238 211.556V26.4444C238 11.8339 226.166 0 211.556 0H26.4444C11.8339 0 0 11.8339 0 26.4444ZM141.028 124.963H113.024V211.556H90.4532V124.963H63.0303V105.778H141.028V124.963ZM145.418 206.61V183.458C145.418 183.458 158.058 192.992 173.238 192.992C188.417 192.992 187.822 183.075 187.822 181.713C187.822 167.314 144.836 167.314 144.836 135.422C144.836 92.0399 207.47 109.163 207.47 109.163L206.69 129.776C206.69 129.776 196.191 122.768 184.318 122.768C172.457 122.768 168.173 128.414 168.173 134.444C168.173 150.006 211.556 148.446 211.556 179.769C211.556 228.004 145.418 206.61 145.418 206.61V206.61Z" fill="#BCAB1F"/>
</svg>
