<svg width="32" height="32" viewBox="0 0 32 32" fill="none" xmlns="http://www.w3.org/2000/svg">
<path d="M4.88889 0C2.20486 0 0 2.20486 0 4.88889V27.1111C0 29.7951 2.20486 32 4.88889 32H27.1111C29.7951 32 32 29.7951 32 27.1111V4.88889C32 2.20486 29.7951 0 27.1111 0H4.88889ZM6.125 9.77778H8.47049C9.05729 9.77778 9.28819 10.0365 9.51042 10.7292C10.559 14.2222 12.1146 16.8889 12.9062 16.8889C13.1997 16.8889 13.3333 16.7483 13.3333 15.9653V12.7465C13.2448 11.0851 12.4444 10.9427 12.4444 10.3472C12.4444 10.0625 12.6302 9.77778 12.9948 9.77778H17.1285C17.6267 9.77778 17.7778 10.0625 17.7778 10.6753V15.2882C17.7778 15.8125 18.1771 16 18.3281 16C18.6215 16 18.8976 16.0191 19.4392 15.4497C21.1111 13.4757 22.5694 10.4896 22.5694 10.4896C22.7205 10.1337 22.9948 9.77778 23.5816 9.77778H25.9115C26.4358 9.77778 26.6493 10.0087 26.6667 10.3281C26.6753 10.4444 26.6476 10.5677 26.6128 10.7014C26.3194 12.1146 23.3333 16.3125 23.3333 16.3472C23.1997 16.5694 23.1198 16.7292 23.1111 16.8889C23.1024 17.0486 23.1649 17.2083 23.3333 17.4392C23.5816 17.7951 24.1163 18.4531 24.6667 19.1111C25.6528 20.3021 26.4444 21.5556 26.6128 22.0712C26.658 22.2049 26.6667 22.3281 26.6667 22.4444C26.658 22.8889 26.3455 23.1111 25.8038 23.1111H23.4757C22.5955 23.1111 22.3125 22.2396 20.783 20.4444C19.4497 18.8889 18.7569 18.6667 18.4184 18.6667C17.9392 18.6667 17.7778 18.7812 17.7778 19.4931V22.1424C17.7778 22.7292 17.6267 23.1111 16.1337 23.1111C13.6719 23.1111 10.8889 21.441 8.78299 18.5608C5.86806 14.5694 5.33333 11.1111 5.33333 10.4618C5.33333 10.1059 5.44965 9.77778 6.125 9.77778Z" fill="white"/>
</svg>
