<svg width="226" height="252" viewBox="0 0 226 252" fill="none" xmlns="http://www.w3.org/2000/svg">
<path d="M225.625 0.125H0.375L20.25 225.375L113 251.875L205.75 225.375L225.625 0.125Z" fill="#CD473F"/>
<path d="M113 20V231.34L187.195 210.132L203.757 20H113Z" fill="#FF5F56"/>
<path d="M173.285 53.125H113V79.625H145.465L143.472 106.125H113V132.625H142.153L140.16 162.438L113 171.715V199.535L165.34 182.312L169.972 106.125L173.285 53.125Z" fill="white"/>
<path d="M113 53.125V79.625H54.0349L52.0552 53.125H113ZM82.5276 106.125L83.8474 132.625H113V106.125H82.5276ZM85.1802 145.875H58.6802L60.6599 182.312L113 199.535V171.715L85.8401 162.438L85.1802 145.875Z" fill="#EEEEEE"/>
</svg>
