<svg width="240" height="240" viewBox="0 0 240 240" fill="none" xmlns="http://www.w3.org/2000/svg">
<path d="M130 85H90C70.67 85 55 69.33 55 50C55 30.67 70.67 15 90 15H130V85Z" fill="#E64A19"/>
<path d="M125 155H90C70.67 155 55 139.33 55 120C55 100.67 70.67 85 90 85H125V155Z" fill="#7C4DFF"/>
<path d="M90 225C70.67 225 55 209.33 55 190C55 170.67 70.67 155 90 155H125V190C125 209.33 109.33 225 90 225Z" fill="#66BB6A"/>
<path d="M160 85H125V15H160C179.33 15 195 30.67 195 50C195 69.33 179.33 85 160 85Z" fill="#FF7043"/>
<path d="M160 155C179.33 155 195 139.33 195 120C195 100.67 179.33 85 160 85C140.67 85 125 100.67 125 120C125 139.33 140.67 155 160 155Z" fill="#29B6F6"/>
</svg>
