<svg width="226" height="252" viewBox="0 0 226 252" fill="none" xmlns="http://www.w3.org/2000/svg">
<path d="M225.625 0.125H0.375L20.25 225.375L113 251.875L205.75 225.375L225.625 0.125Z" fill="#8E8112"/>
<path d="M113 20V231.34L187.195 210.132L203.757 20H113Z" fill="#BCAB1F"/>
<path d="M113 132.625V106.125H169.972L165.34 182.312L113 199.535V171.715L140.16 162.438L142.153 132.625H113ZM171.965 79.625L173.945 53.125H113V79.625H171.965Z" fill="white"/>
<path d="M113 171.715V199.535L60.6599 182.312L58.0073 145.875H84.5073L85.8401 162.438L113 171.715ZM80.5349 79.625H113V53.125H52.7151L57.3474 132.625H113V106.125H82.5276L80.5349 79.625Z" fill="#EEEEEE"/>
</svg>
