<svg width="300" height="270" viewBox="0 0 300 270" fill="none" xmlns="http://www.w3.org/2000/svg">
<path d="M176.25 135C176.25 149.517 164.517 161.25 150 161.25C135.483 161.25 123.75 149.517 123.75 135C123.75 120.483 135.483 108.75 150 108.75C164.517 108.75 176.25 120.483 176.25 135Z" fill="#CA4740" fill-opacity="0.81176"/>
<path d="M150 165C133.462 165 120 151.538 120 135C120 118.462 133.462 105 150 105C166.538 105 180 118.462 180 135C180 151.538 166.538 165 150 165ZM150 112.5C137.593 112.5 127.5 122.593 127.5 135C127.5 147.407 137.593 157.5 150 157.5C162.407 157.5 172.5 147.407 172.5 135C172.5 122.593 162.407 112.5 150 112.5Z" fill="#CF9C2F"/>
<path d="M296.25 135C296.25 114.023 274.409 95.7568 240.059 84.0967C244.38 64.0723 244.966 46.1865 241.304 32.4902C238.242 21.0791 232.441 12.8613 224.092 8.08594C219.053 5.22949 213.296 3.76465 206.997 3.76465C190.444 3.76465 170.288 14.2676 150.015 32.1973C129.727 14.2676 109.57 3.75 93.0029 3.75C86.6895 3.75 80.9473 5.2002 75.9082 8.07129C67.5439 12.8613 61.7432 21.0791 58.6816 32.4902C55.0195 46.1865 55.6055 64.0723 59.9268 84.0967C25.5908 95.7568 3.75 114.038 3.75 135C3.75 155.962 25.5908 174.243 59.9268 185.889C55.6055 205.913 55.0195 223.799 58.6963 237.495C61.7432 248.921 67.5586 257.139 75.9229 261.929C80.9619 264.785 86.7041 266.25 93.0176 266.25C109.585 266.25 129.727 255.747 150.015 237.803C170.288 255.718 190.43 266.221 206.982 266.221C206.997 266.221 206.997 266.221 206.997 266.221C213.311 266.221 219.053 264.771 224.092 261.899C232.441 257.124 238.242 248.921 241.304 237.51C244.966 223.813 244.365 205.928 240.059 185.903C274.409 174.243 296.25 155.977 296.25 135ZM216.665 21.123C221.411 23.8477 224.839 28.9746 226.816 36.3721C229.819 47.5928 229.233 62.6953 225.63 79.8047C213.662 76.6699 200.552 74.2969 186.577 72.7588C178.242 61.4941 169.556 51.3574 160.767 42.4512C178.74 26.8066 195.249 18.7793 206.997 18.7793C210.674 18.7793 213.911 19.5703 216.665 21.123ZM193.374 159.653C188.481 168.032 183.457 175.796 178.359 183.047C169.321 183.838 159.858 184.263 149.985 184.263C140.127 184.263 130.664 183.823 121.611 183.047C116.514 175.796 111.489 168.032 106.597 159.653C101.821 151.479 97.5 143.218 93.6035 135C97.5 126.782 101.821 118.521 106.597 110.347C111.489 101.968 116.528 94.2041 121.626 86.9531C130.664 86.1621 140.142 85.7373 150 85.7373C159.858 85.7373 169.321 86.1621 178.359 86.9531C183.457 94.2041 188.481 101.968 193.374 110.347C198.164 118.521 202.485 126.782 206.382 134.985C202.485 143.218 198.164 151.479 193.374 159.653ZM214.189 152.944C217.266 160.708 219.858 168.325 221.997 175.708C214.57 177.642 206.572 179.282 198.032 180.615C200.859 176.25 203.643 171.812 206.338 167.212C209.106 162.466 211.699 157.705 214.189 152.944ZM150 217.368C144.536 211.831 138.999 205.708 133.462 198.853C138.896 199.102 144.39 199.263 150 199.263C155.596 199.263 161.104 199.102 166.523 198.853C161.001 205.708 155.464 211.846 150 217.368ZM101.953 180.615C93.4277 179.282 85.4297 177.642 78.0029 175.708C80.1416 168.325 82.7197 160.723 85.7959 152.944C88.2861 157.705 90.8789 162.48 93.6475 167.227C96.3281 171.812 99.126 176.25 101.953 180.615ZM85.7959 117.056C82.7197 109.277 80.1416 101.675 78.0029 94.292C85.4297 92.3584 93.4277 90.7178 101.953 89.3848C99.126 93.75 96.3428 98.1885 93.6475 102.773C90.8789 107.534 88.2861 112.295 85.7959 117.056ZM150.015 52.6318C155.479 58.1689 161.001 64.292 166.523 71.1475C161.104 70.8984 155.596 70.7373 150 70.7373C144.404 70.7373 138.896 70.8984 133.477 71.1475C138.999 64.292 144.536 58.1689 150.015 52.6318ZM206.338 102.773C203.643 98.1885 200.859 93.7354 198.032 89.3848C206.572 90.7031 214.57 92.3584 221.997 94.292C219.858 101.675 217.266 109.277 214.189 117.056C211.699 112.295 209.106 107.534 206.338 102.773ZM73.1836 36.3867C75.1611 28.96 78.5889 23.833 83.335 21.1084C86.0889 19.541 89.3262 18.75 93.0029 18.75C104.751 18.75 121.26 26.792 139.248 42.4512C130.459 51.3574 121.758 61.4941 113.423 72.7734C99.4336 74.2969 86.3379 76.6846 74.3555 79.8193C70.7666 62.6953 70.166 47.5928 73.1836 36.3867ZM18.75 135C18.75 122.036 35.4785 108.252 63.6182 98.5693C67.0166 110.303 71.5283 122.563 77.0947 135C71.5283 147.437 67.0166 159.697 63.6182 171.431C35.4785 161.748 18.75 147.964 18.75 135ZM93.0029 251.25C89.3262 251.25 86.0742 250.459 83.3496 248.906C78.5742 246.182 75.1611 241.04 73.1836 233.628C70.166 222.407 70.7666 207.305 74.3555 190.195C86.3379 193.33 99.4336 195.703 113.408 197.241C121.743 208.506 130.444 218.657 139.248 227.563C121.26 243.223 104.751 251.25 93.0029 251.25ZM226.802 233.628C224.824 241.025 221.411 246.152 216.65 248.877C213.911 250.43 210.659 251.221 206.982 251.221C195.234 251.221 178.726 243.193 160.752 227.549C169.541 218.643 178.242 208.506 186.562 197.241C200.552 195.703 213.647 193.315 225.615 190.195C229.219 207.305 229.819 222.407 226.802 233.628ZM236.367 171.431C232.969 159.697 228.457 147.437 222.891 135C228.457 122.563 232.969 110.303 236.367 98.5693C264.507 108.252 281.25 122.036 281.25 135C281.25 147.964 264.507 161.748 236.367 171.431Z" fill="#CA4740" fill-opacity="0.81176"/>
<path d="M93.0176 270C86.0449 270 79.6582 268.374 74.0479 265.181C64.7754 259.878 58.3887 250.884 55.0635 238.462C51.5186 225.249 51.7236 207.979 55.5908 188.35C20.2002 175.649 0 156.313 0 135C0 113.687 20.2002 94.3506 55.5908 81.6504C51.709 62.0215 51.5186 44.751 55.0635 31.5234C58.3887 19.1162 64.7754 10.1221 74.0479 4.81934C92.9443 -5.96191 120.381 1.875 150.015 27.2314C179.619 1.9043 207.041 -5.93261 225.952 4.83398C235.21 10.1221 241.597 19.1016 244.922 31.5234C248.467 44.751 248.276 62.0215 244.395 81.6504C279.785 94.3359 300 113.687 300 135C300 156.313 279.785 175.664 244.395 188.364C248.276 207.993 248.467 225.249 244.922 238.477C241.597 250.898 235.21 259.878 225.952 265.166C207.026 275.947 179.59 268.096 150 242.769C129.185 260.596 109.526 270 93.0176 270ZM93.0029 7.5C87.3486 7.5 82.2217 8.78906 77.7686 11.3379C70.2979 15.6006 65.0977 23.0566 62.3145 33.4717C58.8867 46.2744 59.3262 63.501 63.6035 83.3057L64.3066 86.5869L61.1426 87.6563C27.041 99.2285 7.5 116.484 7.5 135C7.5 153.516 27.041 170.771 61.1279 182.344L64.292 183.428L63.5889 186.694C59.3262 206.499 58.8721 223.74 62.3145 236.543C65.0977 246.958 70.2832 254.414 77.7686 258.677C82.2363 261.211 87.3633 262.5 93.0029 262.5H93.0176C108.105 262.5 127.456 252.73 147.524 234.99L150 232.793L152.476 234.99C172.544 252.715 191.895 262.471 206.982 262.471C212.637 262.471 217.764 261.182 222.246 258.647C229.702 254.385 234.888 246.943 237.671 236.528C241.113 223.726 240.659 206.499 236.396 186.694L235.693 183.428L238.857 182.344C272.944 170.786 292.5 153.516 292.5 135C292.5 116.47 272.944 99.2139 238.857 87.6563L235.693 86.5723L236.396 83.3057C240.674 63.501 241.113 46.2598 237.686 33.457C234.888 23.042 229.702 15.6006 222.231 11.3525C217.764 8.80371 212.637 7.51465 206.997 7.51465C191.909 7.51465 172.559 17.2852 152.49 35.0098L150.015 37.207L147.524 35.0098C127.456 17.2705 108.091 7.5 93.0029 7.5ZM93.0029 255C88.6816 255 84.7998 254.048 81.4893 252.158C75.8203 248.921 71.8066 243.003 69.5508 234.595C66.4893 223.14 66.8848 207.524 70.6934 189.434L71.499 185.581L75.293 186.577C87.2314 189.683 100.181 192.026 113.818 193.506L115.444 193.682L116.426 195C124.468 205.884 133.052 215.947 141.899 224.912L144.712 227.754L141.694 230.391C123.486 246.255 106.187 255 93.0029 255ZM77.2705 194.795C73.7695 210.103 73.6523 223.125 76.8018 232.646C78.8818 238.96 81.3428 243.428 85.21 245.64C94.9072 251.177 113.804 243.867 133.755 227.3C126.006 219.199 118.491 210.293 111.372 200.771C99.4336 199.409 87.9785 197.402 77.2705 194.795ZM206.997 254.971C193.813 254.971 176.514 246.24 158.306 230.376L155.303 227.754L158.101 224.912C166.992 215.903 175.562 205.84 183.56 195.015L184.541 193.682L186.167 193.506C199.819 192.012 212.783 189.683 224.707 186.577L228.516 185.581L229.307 189.434C233.115 207.539 233.511 223.154 230.449 234.595C228.193 243.003 224.18 248.906 218.525 252.129C215.2 254.019 211.318 254.971 206.997 254.971ZM166.245 227.3C186.196 243.853 205.034 251.177 214.805 245.61C218.657 243.428 221.104 238.945 223.184 232.661C226.348 223.125 226.216 210.103 222.715 194.81C212.021 197.402 200.566 199.409 188.599 200.786C181.523 210.264 174.023 219.155 166.245 227.3ZM150 222.715L147.334 220.02C141.533 214.146 135.894 207.832 130.547 201.196L125.303 194.707L133.638 195.103C144.375 195.601 155.625 195.601 166.348 195.103L174.683 194.707L169.453 201.196C164.121 207.788 158.481 214.116 152.666 219.99L150 222.715ZM141.738 202.91C144.434 206.03 147.202 209.077 150 211.992C152.798 209.048 155.552 206.03 158.262 202.91C152.783 203.042 147.202 203.042 141.738 202.91ZM150 188.013C140.376 188.013 130.723 187.603 121.304 186.782L119.561 186.636L118.55 185.2C113.145 177.495 108.032 169.526 103.359 161.543C98.7158 153.589 94.292 145.195 90.2197 136.611L89.458 135L90.2197 133.389C94.292 124.805 98.7158 116.411 103.359 108.457C108.091 100.371 113.057 92.6367 118.564 84.7998L119.575 83.3643L121.318 83.2178C140.127 81.5918 159.873 81.5918 178.682 83.2178L180.425 83.3643L181.421 84.7998C186.943 92.6807 191.924 100.415 196.611 108.457C201.299 116.484 205.723 124.863 209.766 133.403L210.513 135L209.766 136.611C205.723 145.137 201.299 153.53 196.611 161.543C191.924 169.585 186.943 177.334 181.421 185.2L180.425 186.636L178.682 186.782C169.277 187.603 159.624 188.013 150 188.013ZM123.677 179.458C141.006 180.864 159.009 180.864 176.294 179.458C181.304 172.251 185.83 165.132 190.151 157.764C194.429 150.439 198.486 142.778 202.222 135C198.486 127.222 194.429 119.561 190.151 112.236C185.845 104.868 181.304 97.749 176.294 90.542C158.994 89.1357 140.962 89.1357 123.691 90.542C118.711 97.7197 114.17 104.839 109.834 112.251C105.586 119.502 101.528 127.148 97.749 135C101.528 142.837 105.586 150.483 109.834 157.764C114.111 165.073 118.77 172.368 123.677 179.458ZM190.327 185.61L194.883 178.579C197.681 174.258 200.435 169.863 203.086 165.337C205.84 160.635 208.389 155.918 210.85 151.201L214.644 143.95L217.661 151.567C220.708 159.243 223.374 167.021 225.586 174.668L226.67 178.374L222.935 179.341C215.303 181.333 207.129 183.003 198.618 184.336L190.327 185.61ZM213.589 161.997C212.285 164.37 210.952 166.743 209.561 169.116C208.301 171.284 207.012 173.394 205.723 175.503C209.678 174.756 213.53 173.936 217.266 173.027C216.138 169.351 214.907 165.674 213.589 161.997ZM109.658 185.61L101.367 184.321C92.8564 183.003 84.668 181.318 77.0654 179.341L73.3301 178.374L74.4141 174.668C76.6113 167.051 79.2773 159.272 82.3242 151.582L85.3418 143.95L89.1357 151.216C91.5967 155.933 94.1455 160.649 96.8994 165.337C99.5508 169.878 102.305 174.272 105.103 178.594L109.658 185.61ZM82.7197 173.013C86.4404 173.906 90.293 174.741 94.248 175.488C92.9443 173.394 91.6699 171.27 90.4102 169.116C89.0186 166.743 87.6855 164.385 86.3818 161.997C85.0635 165.688 83.8477 169.365 82.7197 173.013ZM233.848 176.265L232.749 172.471C229.409 160.869 224.927 148.784 219.463 136.538L218.774 135L219.463 133.477C224.927 121.245 229.409 109.146 232.764 97.5293L233.862 93.7354L237.598 95.0244C267.275 105.234 285 120.176 285 135C285 149.824 267.275 164.766 237.583 174.976L233.848 176.265ZM226.992 135C231.709 145.708 235.679 156.299 238.828 166.567C262.441 157.793 277.5 145.591 277.5 135C277.5 124.409 262.441 112.207 238.828 103.433C235.679 113.716 231.709 124.307 226.992 135ZM66.123 176.265L62.4023 174.976C32.7246 164.766 15 149.824 15 135C15 120.176 32.7246 105.234 62.4023 95.0244L66.123 93.7354L67.2217 97.5293C70.5908 109.189 75.0586 121.289 80.5078 133.477L81.2109 135L80.5225 136.523C75.0586 148.711 70.5908 160.811 67.2363 172.471L66.123 176.265ZM61.1572 103.433C37.5439 112.222 22.5 124.424 22.5 135C22.5 145.576 37.5439 157.778 61.1572 166.567C64.3213 156.255 68.291 145.664 72.9932 135C68.291 124.336 64.3213 113.745 61.1572 103.433ZM85.3418 126.064L82.3242 118.447C79.2773 110.742 76.6113 102.964 74.3994 95.3467L73.3301 91.6406L77.0508 90.6738C84.668 88.6963 92.8564 87.0117 101.367 85.6934L109.658 84.4043L105.088 91.4356C102.29 95.7568 99.5361 100.151 96.8848 104.678C94.1309 109.365 91.582 114.097 89.1211 118.799L85.3418 126.064ZM82.7197 96.9873C83.833 100.635 85.0635 104.312 86.3818 108.003C87.6855 105.63 89.0186 103.257 90.4102 100.884C91.6699 98.7305 92.9443 96.6211 94.248 94.5117C90.293 95.2588 86.4404 96.0938 82.7197 96.9873ZM214.644 126.064L210.85 118.799C208.389 114.082 205.84 109.365 203.086 104.678C200.435 100.137 197.681 95.7422 194.883 91.4209L190.327 84.3897L198.604 85.6787C207.129 87.0117 215.332 88.6816 222.935 90.6738L226.655 91.6406L225.586 95.3467C223.359 102.993 220.708 110.771 217.661 118.462L214.644 126.064ZM205.723 94.5117C207.026 96.6065 208.315 98.7305 209.575 100.884C210.967 103.257 212.3 105.63 213.604 108.003C214.922 104.326 216.152 100.649 217.28 96.9873C213.545 96.0791 209.678 95.2588 205.723 94.5117ZM228.486 84.4336L224.678 83.4375C212.783 80.332 199.819 77.9883 186.152 76.4941L184.526 76.3184L183.545 75C175.518 64.1309 166.963 54.0674 158.086 45.1025L155.288 42.2607L158.291 39.624C182.52 18.5449 205.122 10.2393 218.496 17.8711C224.165 21.1084 228.179 27.0117 230.435 35.4053C233.496 46.8604 233.086 62.4756 229.292 80.5811L228.486 84.4336ZM188.599 69.2139C200.581 70.5908 212.021 72.5977 222.715 75.2051C226.597 60.8936 227.139 48.2373 223.198 37.3389C220.928 31.1133 218.657 26.5869 214.805 24.375C205.063 18.8232 186.211 26.1475 166.26 42.7002C173.994 50.8154 181.509 59.7217 188.599 69.2139ZM71.499 84.4336L70.6934 80.5811C66.8848 62.4756 66.4893 46.8604 69.5508 35.4199C71.8066 26.9971 75.8203 21.0791 81.4893 17.8564C94.9072 10.21 117.495 18.5449 141.709 39.6387L144.727 42.2607L141.914 45.1025C133.037 54.082 124.468 64.1455 116.44 75.0147L115.474 76.333L113.833 76.5088C100.195 78.0029 87.2314 80.332 75.3076 83.4522L71.499 84.4336ZM93.0029 22.5C89.9854 22.5 87.3633 23.1152 85.1953 24.3604C81.3428 26.5723 79.3945 31.2305 76.8018 37.3535C72.7441 46.919 73.4326 59.9268 77.2705 75.2051C87.9785 72.5977 99.4336 70.5908 111.387 69.2139C118.491 59.7217 126.006 50.8154 133.77 42.7148C118.242 29.8242 103.521 22.5 93.0029 22.5ZM125.317 75.293L130.562 68.8037C135.879 62.1973 141.533 55.8691 147.334 49.9951L150 47.2998L152.666 49.9951C158.496 55.8984 164.136 62.2266 169.438 68.7891L174.653 75.2783L166.333 74.8975C155.61 74.3994 144.36 74.3994 133.638 74.8975L125.317 75.293ZM150 66.9873C152.769 66.9873 155.522 67.0313 158.262 67.0899C155.581 63.9844 152.812 60.9522 150.015 58.0078C147.202 60.9522 144.448 63.9697 141.753 67.0899C144.478 67.0313 147.231 66.9873 150 66.9873Z" fill="#CF9C2F"/>
</svg>
