<svg width="318" height="172" viewBox="0 0 318 172" fill="none" xmlns="http://www.w3.org/2000/svg">
<path d="M198.238 0.00339561C195.257 -0.0711314 192.648 1.07159 191.307 4.37555C189.021 9.91528 194.71 15.3308 196.747 18.1628C198.163 20.1253 200.001 22.3362 201.02 24.5471C201.691 26.0128 201.79 27.4784 202.361 29.0186C203.777 32.8194 206.038 37.1419 207.851 40.6694C208.771 42.458 209.789 44.3212 210.957 45.9111C211.677 46.8799 212.894 47.327 213.093 48.8175C211.901 50.5068 211.826 53.1152 211.155 55.2516C208.125 64.8157 209.267 76.7149 213.664 83.77C215.031 85.9561 218.235 90.6015 222.607 88.8377C226.433 87.2727 225.588 82.4285 226.682 78.1309C226.93 77.1869 226.781 76.4665 227.278 75.8206V76.0193C228.42 78.3545 229.588 80.6896 230.756 82.9999C233.364 87.1733 237.96 91.5206 241.835 94.4768C243.847 95.9921 245.437 98.6254 248.045 99.5197V99.3209H247.847C247.35 98.526 246.555 98.2031 245.909 97.582C244.394 96.0915 242.704 94.2284 241.462 92.5143C237.91 87.7198 234.78 82.4534 231.948 76.9882C230.582 74.3798 229.389 71.4981 228.247 68.84C227.799 67.7967 227.799 66.2565 226.88 65.71C225.613 67.6725 223.775 69.2375 222.806 71.5478C221.266 75.2244 221.042 79.7208 220.471 84.3662C220.123 84.4904 220.272 84.391 220.098 84.5649C217.391 83.8942 216.422 81.1119 215.428 78.7271C212.894 72.6905 212.397 62.9525 214.658 56.0217C215.229 54.2082 217.838 48.5443 216.794 46.8799C216.298 45.2155 214.608 44.2715 213.689 43.0046C212.522 41.4395 211.379 39.3777 210.584 37.5642C208.497 32.8443 206.535 27.3791 204.324 22.6094C203.281 20.324 201.517 18.0385 200.051 16.0015C198.436 13.7658 196.648 12.1262 195.381 9.3936C194.959 8.44961 194.337 6.90942 195.008 5.91575C195.207 5.24502 195.505 4.97176 196.176 4.74818C197.294 3.87872 200.424 5.02144 201.616 5.51828C204.721 6.81005 207.33 8.05214 209.963 9.79107C211.23 10.6357 212.497 12.2504 214.037 12.7224H215.776C218.533 13.3434 221.589 12.8963 224.123 13.6912C228.644 15.0575 232.693 17.1939 236.345 19.5042C247.549 26.5593 256.715 36.6202 262.951 48.6188C263.969 50.5565 264.416 52.4196 265.311 54.4566C267.074 58.5804 269.335 62.8532 271.124 66.8775C272.887 70.9268 274.626 74.976 277.135 78.3296C278.452 80.0934 283.569 81.0622 285.88 82.031C287.494 82.7266 290.177 83.447 291.693 84.3662C294.649 86.1299 297.481 88.2415 300.238 90.204C301.629 91.1728 305.852 93.2844 306.076 95.0481C299.244 94.8743 294.028 95.4953 289.581 97.3833C288.314 97.9298 286.277 97.9298 286.078 99.5197C286.749 100.24 286.873 101.333 287.42 102.227C288.488 103.942 290.277 106.252 291.891 107.469C293.655 108.786 295.444 110.202 297.332 111.369C300.66 113.381 304.387 114.549 307.616 116.586C309.504 117.803 311.417 119.319 313.255 120.66C314.174 121.356 314.771 122.399 315.963 122.821V122.623C315.342 121.828 315.193 120.735 314.622 119.915L312.063 117.356C309.603 114.102 306.473 111.22 303.145 108.835C300.487 106.923 294.549 104.339 293.456 101.259L293.258 101.06C295.121 100.861 297.332 100.166 299.071 99.6936C302.002 98.9235 304.585 99.1222 307.591 98.3521C308.958 97.9546 310.324 97.5572 311.69 97.1845V96.3896C310.175 94.8494 309.082 92.7627 307.417 91.3467C303.07 87.6453 298.325 83.9439 293.431 80.8635C290.724 79.1494 287.37 78.0315 284.513 76.5907C283.544 76.0939 281.855 75.8454 281.209 75.0257C279.694 73.1128 278.874 70.6783 277.707 68.4426C275.272 63.7475 272.887 58.6301 270.726 53.6865C269.26 50.3329 268.292 47.0041 266.453 43.9734C257.634 29.4906 248.145 20.7215 233.438 12.1262C230.308 10.2879 226.557 9.59233 222.583 8.64834C220.421 8.49929 218.31 8.37508 216.149 8.25088C214.857 7.70436 213.491 6.11448 212.273 5.31954C209.218 3.40672 203.206 0.0779226 198.238 0.00339561ZM219.279 21.0693C217.863 21.0444 216.844 21.2431 215.776 21.4667V21.6655H215.975C216.645 23.0566 217.863 23.9509 218.707 25.1433C219.353 26.5096 219.974 27.8759 220.62 29.2422L220.819 29.0435C222.011 28.1989 222.583 26.8326 222.583 24.7707C222.086 24.2738 222.011 23.628 221.614 23.0318C221.042 22.212 219.974 21.7648 219.279 21.0693ZM11.8992 101.731C9.98641 101.805 7.89969 102.178 5.63909 102.898C1.86314 104.041 0 106.301 0 110.897V158.991H12.7438V112.065L30.4064 152.184C32.5925 157.178 35.5735 158.966 41.4113 158.966C47.274 158.966 50.1308 157.178 52.3169 152.184L69.9794 113.083V158.991H82.6984V110.897C82.6984 106.301 80.8601 104.041 77.0593 102.898C68.0169 100.041 61.9306 102.501 59.198 108.686L41.0635 149.477L23.5252 108.686C21.5378 104.041 17.5632 101.507 11.8992 101.731ZM166.937 101.755C161.919 101.755 146.293 102.352 146.293 114.474V122.324C146.293 127.889 151.187 132.435 161.795 133.553C162.987 133.627 164.18 133.727 165.372 133.727C165.372 133.727 177.743 133.478 178.091 133.553C185.245 133.553 184.45 139.118 184.45 139.912V146.272C184.45 147.141 184.252 152.631 178.016 152.631H146.293V158.991H178.141C182.314 158.991 186.363 158.122 189.593 156.606C194.959 154.147 197.169 150.818 197.169 146.446V137.354C197.169 127.591 185.047 127.193 178.091 127.193H165.372C160.379 127.193 159.609 124.163 159.012 120.834V114.474C159.609 111.941 160.727 108.512 165.148 108.115H197.169V101.755H166.937ZM216.124 101.755C206.734 103.047 203.43 107.717 203.43 114.474V146.272C203.43 152.458 206.883 156.184 213.987 158.122C216.372 158.792 218.533 159.065 220.57 159.065L234.73 158.991H243.052L250.132 165.35H264.441L254.604 156.482C259.224 154.569 260.665 151.638 260.665 146.148V114.474C260.665 107.717 256.268 103.047 246.878 101.755H216.124ZM267.124 101.755V145.999C267.124 153.675 271.471 157.997 282.973 158.867C284.041 158.916 285.134 158.991 286.202 158.991H318V152.631H288.612C282.054 152.631 279.843 149.874 279.843 145.949V101.755H267.124ZM223.701 108.115H240.071C244.394 108.115 247.3 111.593 247.946 114.474C247.946 114.474 248.045 144.086 248.045 146.272C248.045 148.458 246.828 149.452 246.828 149.452L243.375 146.272H228.967L236.047 152.631H223.701C219.279 152.631 216.794 149.352 216.149 146.272V115.12C216.149 111.742 218.732 108.115 223.701 108.115ZM89.0579 120.834C89.3063 121.082 89.0579 147.936 89.0579 148.458C89.1573 154.023 96.2123 158.892 107.267 158.991H127.215V159.413C127.215 160.606 128.084 164.58 120.855 165.35C120.781 165.35 89.1324 165.35 89.0579 165.35V171.71H122.222C127.836 171.536 140.008 170.269 139.934 160.531C139.934 160.357 139.984 120.834 139.934 120.834H127.215V152.631C127.016 152.631 111.465 152.681 108.335 152.631C102.199 152.532 101.678 149.029 101.777 147.688V120.834H89.0579Z" fill="#BCAB1F"/>
</svg>
