<svg width="238" height="238" viewBox="0 0 238 238" fill="none" xmlns="http://www.w3.org/2000/svg">
<g clip-path="url(#clip0_310_31)">
<path d="M124.791 105.593V188.099H109.401V99.8014L124.791 105.593Z" fill="#D7584C"/>
<path d="M63.308 97.8973C63.308 76.7947 74.8113 65.2913 88.298 65.2913C101.785 65.2913 103.689 67.1953 119 74.8907C134.311 82.586 138.199 84.49 145.894 84.49C153.589 84.49 157.397 78.6986 157.397 67.1953H170.805C172.709 90.202 159.301 99.8013 145.815 99.8013C132.328 99.8013 128.52 97.8973 115.113 90.202C101.705 82.5066 97.818 80.6026 90.1226 80.6026C82.4273 80.6026 78.6193 86.394 76.7153 99.8013L63.308 97.8973Z" fill="#D7584C"/>
<path d="M119 238C53.3913 238 0 184.609 0 119C0 53.3913 53.3913 0 119 0C184.609 0 238 53.3913 238 119C238 184.609 184.609 238 119 238ZM119 7.69533C57.596 7.69533 7.69533 57.596 7.69533 119C7.69533 180.404 57.596 230.305 119 230.305C180.404 230.305 230.305 180.404 230.305 119C230.305 57.596 180.404 7.69533 119 7.69533Z" fill="#D7584C"/>
</g>
<defs>
<clipPath id="clip0_310_31">
<rect width="238" height="238" fill="white"/>
</clipPath>
</defs>
</svg>
